<svg xmlns="http://www.w3.org/2000/svg" viewBox="0 0 512 512">
  <defs>
    <linearGradient id="bg" x1="0" y1="0" x2="1" y2="1">
      <stop offset="0" stop-color="#e15a9c"/>
      <stop offset="1" stop-color="#8a5cf6"/>
    </linearGradient>
  </defs>
  <rect width="512" height="512" rx="112" fill="url(#bg)"/>
  <!-- dois coraçõezinhos do casal -->
  <g transform="translate(120,108) scale(1.55)" fill="#fff" opacity="0.6">
    <path d="M50,84 C20,62 8,42 8,26 C8,14 18,6 30,6 C39,6 47,12 50,20 C53,12 61,6 70,6 C82,6 92,14 92,26 C92,42 80,62 50,84 Z"/>
  </g>
  <g transform="translate(232,108) scale(1.55)" fill="#fff">
    <path d="M50,84 C20,62 8,42 8,26 C8,14 18,6 30,6 C39,6 47,12 50,20 C53,12 61,6 70,6 C82,6 92,14 92,26 C92,42 80,62 50,84 Z"/>
  </g>
  <!-- "doramas" em coreano -->
  <text x="256" y="404" text-anchor="middle" font-family="'Apple SD Gothic Neo','Malgun Gothic','Noto Sans KR',sans-serif" font-size="132" font-weight="800" fill="#fff">드라마</text>
</svg>
